<mxfile host="app.diagrams.net" modified="2023-05-28T08:34:09.111Z" agent="Mozilla/5.0 (Windows NT 10.0; Win64; x64) AppleWebKit/537.36 (KHTML, like Gecko) Chrome/113.0.0.0 Safari/537.36 Edg/113.0.1774.57" etag="C2DaGM48wdbVsNhtzYkS" version="21.2.2" type="device">
  <diagram name="第 1 页" id="9J81pqV-1k1AuKMML8u_">
    <mxGraphModel dx="864" dy="853" grid="1" gridSize="10" guides="1" tooltips="1" connect="1" arrows="1" fold="1" page="1" pageScale="1" pageWidth="827" pageHeight="1169" math="0" shadow="0">
      <root>
        <mxCell id="0" />
        <mxCell id="1" parent="0" />
        <mxCell id="ey1_pvjAJ_vSAXCHUaZm-7" style="edgeStyle=orthogonalEdgeStyle;rounded=0;orthogonalLoop=1;jettySize=auto;html=1;exitX=1;exitY=0.5;exitDx=0;exitDy=0;entryX=0;entryY=0.5;entryDx=0;entryDy=0;" edge="1" parent="1" source="ey1_pvjAJ_vSAXCHUaZm-1" target="ey1_pvjAJ_vSAXCHUaZm-2">
          <mxGeometry relative="1" as="geometry" />
        </mxCell>
        <mxCell id="ey1_pvjAJ_vSAXCHUaZm-9" style="edgeStyle=orthogonalEdgeStyle;rounded=0;orthogonalLoop=1;jettySize=auto;html=1;exitX=0.5;exitY=1;exitDx=0;exitDy=0;entryX=0.5;entryY=0;entryDx=0;entryDy=0;" edge="1" parent="1" source="ey1_pvjAJ_vSAXCHUaZm-1" target="ey1_pvjAJ_vSAXCHUaZm-6">
          <mxGeometry relative="1" as="geometry" />
        </mxCell>
        <mxCell id="ey1_pvjAJ_vSAXCHUaZm-1" value="用户" style="whiteSpace=wrap;html=1;" vertex="1" parent="1">
          <mxGeometry x="60" y="270" width="120" height="60" as="geometry" />
        </mxCell>
        <mxCell id="ey1_pvjAJ_vSAXCHUaZm-16" style="edgeStyle=orthogonalEdgeStyle;rounded=0;orthogonalLoop=1;jettySize=auto;html=1;exitX=0.5;exitY=1;exitDx=0;exitDy=0;entryX=0.5;entryY=0;entryDx=0;entryDy=0;" edge="1" parent="1" source="ey1_pvjAJ_vSAXCHUaZm-2" target="ey1_pvjAJ_vSAXCHUaZm-15">
          <mxGeometry relative="1" as="geometry" />
        </mxCell>
        <mxCell id="ey1_pvjAJ_vSAXCHUaZm-19" value="" style="edgeStyle=orthogonalEdgeStyle;rounded=0;orthogonalLoop=1;jettySize=auto;html=1;" edge="1" parent="1" source="ey1_pvjAJ_vSAXCHUaZm-2" target="ey1_pvjAJ_vSAXCHUaZm-18">
          <mxGeometry relative="1" as="geometry" />
        </mxCell>
        <mxCell id="ey1_pvjAJ_vSAXCHUaZm-2" value="订单" style="whiteSpace=wrap;html=1;" vertex="1" parent="1">
          <mxGeometry x="320" y="270" width="120" height="60" as="geometry" />
        </mxCell>
        <mxCell id="ey1_pvjAJ_vSAXCHUaZm-3" value="商品" style="whiteSpace=wrap;html=1;" vertex="1" parent="1">
          <mxGeometry x="680" y="420" width="120" height="60" as="geometry" />
        </mxCell>
        <mxCell id="ey1_pvjAJ_vSAXCHUaZm-11" style="edgeStyle=orthogonalEdgeStyle;rounded=0;orthogonalLoop=1;jettySize=auto;html=1;exitX=0.5;exitY=1;exitDx=0;exitDy=0;" edge="1" parent="1" source="ey1_pvjAJ_vSAXCHUaZm-5" target="ey1_pvjAJ_vSAXCHUaZm-3">
          <mxGeometry relative="1" as="geometry" />
        </mxCell>
        <mxCell id="ey1_pvjAJ_vSAXCHUaZm-5" value="分类" style="whiteSpace=wrap;html=1;" vertex="1" parent="1">
          <mxGeometry x="680" y="270" width="120" height="60" as="geometry" />
        </mxCell>
        <mxCell id="ey1_pvjAJ_vSAXCHUaZm-6" value="收货地址" style="whiteSpace=wrap;html=1;" vertex="1" parent="1">
          <mxGeometry x="60" y="420" width="120" height="60" as="geometry" />
        </mxCell>
        <mxCell id="ey1_pvjAJ_vSAXCHUaZm-8" value="1对多" style="text;html=1;align=center;verticalAlign=middle;resizable=0;points=[];autosize=1;strokeColor=none;fillColor=none;" vertex="1" parent="1">
          <mxGeometry x="220" y="278" width="50" height="30" as="geometry" />
        </mxCell>
        <mxCell id="ey1_pvjAJ_vSAXCHUaZm-10" value="1对多" style="text;html=1;align=center;verticalAlign=middle;resizable=0;points=[];autosize=1;strokeColor=none;fillColor=none;" vertex="1" parent="1">
          <mxGeometry x="70" y="358" width="50" height="30" as="geometry" />
        </mxCell>
        <mxCell id="ey1_pvjAJ_vSAXCHUaZm-12" value="1对多" style="text;html=1;align=center;verticalAlign=middle;resizable=0;points=[];autosize=1;strokeColor=none;fillColor=none;" vertex="1" parent="1">
          <mxGeometry x="740" y="368" width="50" height="30" as="geometry" />
        </mxCell>
        <mxCell id="ey1_pvjAJ_vSAXCHUaZm-15" value="支付信息" style="whiteSpace=wrap;html=1;" vertex="1" parent="1">
          <mxGeometry x="320" y="420" width="120" height="60" as="geometry" />
        </mxCell>
        <mxCell id="ey1_pvjAJ_vSAXCHUaZm-17" value="1对1" style="text;html=1;align=center;verticalAlign=middle;resizable=0;points=[];autosize=1;strokeColor=none;fillColor=none;" vertex="1" parent="1">
          <mxGeometry x="380" y="370" width="50" height="30" as="geometry" />
        </mxCell>
        <mxCell id="ey1_pvjAJ_vSAXCHUaZm-18" value="订单信息" style="whiteSpace=wrap;html=1;" vertex="1" parent="1">
          <mxGeometry x="510" y="270" width="120" height="60" as="geometry" />
        </mxCell>
        <mxCell id="ey1_pvjAJ_vSAXCHUaZm-20" value="1对多" style="text;html=1;align=center;verticalAlign=middle;resizable=0;points=[];autosize=1;strokeColor=none;fillColor=none;" vertex="1" parent="1">
          <mxGeometry x="450" y="270" width="50" height="30" as="geometry" />
        </mxCell>
      </root>
    </mxGraphModel>
  </diagram>
</mxfile>
